<svg width="110" height="110" viewBox="0 0 110 110" fill="none" xmlns="http://www.w3.org/2000/svg">
    <circle cx="55" cy="55" r="55" fill="#FCF7F9"/>
    <path d="M23 33.875C23 31.1826 25.149 29 27.8 29H59.8C62.45 29 64.6 31.1826 64.6 33.875V38.75H69.67C71.37 38.75 72.91 39.4305 74.2 40.6492L81.93 48.5C83.13 49.7188 83.8 51.3742 83.8 53.1008V64.75C85.57 64.75 87 66.2023 87 68C87 69.7977 85.57 71.25 83.8 71.25H80.49C79.71 65.7352 75.04 61.5 69.4 61.5C63.76 61.5 59.09 65.7352 58.31 71.25H51.69C50.91 65.7352 46.24 61.5 40.6 61.5C34.96 61.5 30.29 65.7352 29.513 71.25H27.8C25.149 71.25 23 69.0664 23 66.375L23 33.875ZM77.4 55V53.1008L69.67 45.25H64.6V55H77.4ZM42.2 35.5C41.32 35.5 40.6 36.2272 40.6 37.125V42H35.8C34.92 42 34.2 42.7312 34.2 43.625V46.875C34.2 47.7688 34.92 48.5 35.8 48.5H40.6V53.375C40.6 54.2688 41.32 55 42.2 55H45.4C46.28 55 47 54.2688 47 53.375V48.5H51.8C52.68 48.5 53.4 47.7688 53.4 46.875V43.625C53.4 42.7312 52.68 42 51.8 42H47V37.125C47 36.2272 46.28 35.5 45.4 35.5H42.2Z" fill="#BD252A"/>
    <path opacity="0.4" d="M45.4 35.5C46.28 35.5 47 36.2272 47 37.125V42H51.8C52.68 42 53.4 42.7312 53.4 43.625V46.875C53.4 47.7688 52.68 48.5 51.8 48.5H47V53.375C47 54.2688 46.28 55 45.4 55H42.2C41.32 55 40.6 54.2688 40.6 53.375V48.5H35.8C34.92 48.5 34.2 47.7688 34.2 46.875V43.625C34.2 42.7312 34.92 42 35.8 42H40.6V37.125C40.6 36.2272 41.32 35.5 42.2 35.5H45.4ZM48.6 72.875C48.6 77.3641 45.02 81 40.6 81C36.18 81 32.6 77.3641 32.6 72.875C32.6 68.3859 36.18 64.75 40.6 64.75C45.02 64.75 48.6 68.3859 48.6 72.875ZM77.4 72.875C77.4 77.3641 73.82 81 69.4 81C64.98 81 61.4 77.3641 61.4 72.875C61.4 68.3859 64.98 64.75 69.4 64.75C73.82 64.75 77.4 68.3859 77.4 72.875Z" fill="#BD252A"/>
</svg>
