<svg width="135" height="45" viewBox="0 0 135 45" fill="none" xmlns="http://www.w3.org/2000/svg">
    <g clip-path="url(#clip0_407_18708)">
        <path d="M123.902 0.00014625H10.7265C10.314 0.00014625 9.90639 0.00014625 9.49494 0.00239625C9.15052 0.00464625 8.80885 0.0111825 8.46112 0.0166838C7.7057 0.0255733 6.95206 0.0920321 6.20674 0.215483C5.46246 0.34162 4.74151 0.579427 4.06825 0.920858C3.39581 1.26518 2.78139 1.71258 2.24727 2.24685C1.71034 2.77961 1.26277 3.39541 0.921769 4.07058C0.579825 4.74439 0.342721 5.46645 0.218644 6.21181C0.0933873 6.95623 0.0259857 7.70923 0.0170438 8.46406C0.00660375 8.80899 0.00550125 9.15506 0 9.50003V35.5036C0.00550125 35.8529 0.00660375 36.1913 0.0170438 36.5407C0.0259884 37.2955 0.0933901 38.0485 0.218644 38.7928C0.342378 39.5386 0.579497 40.2611 0.921769 40.9352C1.26262 41.6082 1.71025 42.2215 2.24727 42.7513C2.77936 43.2879 3.39418 43.7356 4.06825 44.0773C4.7415 44.4197 5.46238 44.6589 6.20674 44.787C6.95218 44.9094 7.70575 44.9759 8.46112 44.9859C8.80885 44.9935 9.15052 44.9979 9.49494 44.9979C9.90638 45.0002 10.314 45.0002 10.7265 45.0002H123.902C124.306 45.0002 124.717 45.0002 125.121 44.9979C125.464 44.9979 125.815 44.9935 126.158 44.9859C126.912 44.9764 127.664 44.91 128.408 44.787C129.155 44.658 129.878 44.4188 130.555 44.0773C131.228 43.7354 131.843 43.2877 132.374 42.7513C132.91 42.2194 133.359 41.6065 133.704 40.9352C134.043 40.2606 134.278 39.5382 134.4 38.7928C134.526 38.0484 134.595 37.2956 134.609 36.5407C134.613 36.1913 134.613 35.8529 134.613 35.5036C134.622 35.0949 134.622 34.6884 134.622 34.273V10.7283C134.622 10.3163 134.622 9.90762 134.613 9.50003C134.613 9.15506 134.613 8.80899 134.609 8.46402C134.595 7.70912 134.526 6.95629 134.4 6.21177C134.278 5.46684 134.043 4.74484 133.704 4.07053C133.009 2.71724 131.908 1.61567 130.555 0.920756C129.878 0.58016 129.155 0.342417 128.408 0.215381C127.664 0.0913869 126.912 0.024905 126.158 0.0165263C125.815 0.0110363 125.464 0.00444375 125.121 0.00225C124.717 0 124.306 0 123.902 0V0.00014625Z" fill="#A6A6A6"/>
        <path d="M9.50048 44.0156C9.15771 44.0156 8.82323 44.0112 8.48315 44.0036C7.77866 43.9944 7.07581 43.9331 6.38037 43.8201C5.73191 43.7084 5.10372 43.5007 4.51653 43.2037C3.93473 42.9092 3.40408 42.5231 2.94491 42.06C2.47909 41.6025 2.09128 41.0718 1.79684 40.489C1.49915 39.9024 1.29313 39.2736 1.18596 38.6246C1.07023 37.9273 1.00761 37.2221 0.998648 36.5153C0.991515 36.278 0.982178 35.488 0.982178 35.488V9.49988C0.982178 9.49988 0.992123 8.72205 0.998704 8.49352C1.00728 7.78779 1.06954 7.08373 1.18493 6.38745C1.29229 5.73666 1.49847 5.10609 1.79632 4.51758C2.08968 3.93519 2.47534 3.40409 2.93835 2.94489C3.40084 2.48132 3.93319 2.09318 4.51598 1.79461C5.10182 1.49861 5.72882 1.29232 6.37597 1.18268C7.07369 1.06857 7.77898 1.00687 8.48592 0.998111L9.50103 0.984375H125.116L126.143 0.998663C126.843 1.00699 127.542 1.06813 128.234 1.18158C128.887 1.2926 129.521 1.50032 130.113 1.79791C131.281 2.39961 132.231 3.35156 132.83 4.52033C133.123 5.10478 133.326 5.73019 133.432 6.37536C133.549 7.07737 133.614 7.78696 133.628 8.49848C133.631 8.81708 133.631 9.1593 133.631 9.49988C133.64 9.92176 133.64 10.3233 133.64 10.7281V34.2729C133.64 34.6816 133.64 35.0804 133.631 35.4825C133.631 35.8484 133.631 36.1835 133.627 36.5284C133.614 37.2272 133.549 37.9242 133.434 38.6136C133.33 39.2673 133.125 39.901 132.827 40.4923C132.53 41.0688 132.145 41.5949 131.684 42.0513C131.225 42.5168 130.693 42.9052 130.11 43.2016C129.519 43.5008 128.887 43.7093 128.234 43.8201C127.538 43.9337 126.835 43.995 126.131 44.0036C125.801 44.0112 125.456 44.0156 125.121 44.0156L123.902 44.0179L9.50048 44.0156Z" fill="black"/>
        <path d="M27.865 22.8379C27.8771 21.8989 28.1265 20.9782 28.59 20.1615C29.0536 19.3448 29.7161 18.6586 30.5161 18.1668C30.0079 17.441 29.3375 16.8437 28.5581 16.4223C27.7786 16.0009 26.9117 15.7671 26.0261 15.7394C24.1369 15.5411 22.3055 16.8698 21.3428 16.8698C20.3615 16.8698 18.8793 15.7591 17.2832 15.7919C16.2509 15.8253 15.2447 16.1255 14.3629 16.6633C13.481 17.2011 12.7535 17.9582 12.2512 18.8608C10.0755 22.6278 11.6984 28.1639 13.7826 31.2089C14.8253 32.6999 16.044 34.3654 17.6386 34.3063C19.1991 34.2416 19.7819 33.3113 21.6655 33.3113C23.5316 33.3113 24.0784 34.3063 25.7053 34.2688C27.3798 34.2416 28.4347 32.7711 29.4409 31.266C30.1901 30.2036 30.7667 29.0294 31.1491 27.7869C30.1763 27.3755 29.3462 26.6868 28.7622 25.8067C28.1782 24.9266 27.8661 23.8941 27.865 22.8379V22.8379Z" fill="white"/>
        <path d="M24.7919 13.7376C25.7049 12.6416 26.1547 11.2329 26.0457 9.81067C24.6509 9.95717 23.3625 10.6238 22.4372 11.6777C21.9848 12.1926 21.6383 12.7916 21.4175 13.4405C21.1968 14.0893 21.106 14.7753 21.1505 15.4593C21.8482 15.4665 22.5384 15.3153 23.1691 15.017C23.7999 14.7188 24.3547 14.2814 24.7919 13.7376Z" fill="white"/>
        <path d="M47.5901 30.5321H42.265L40.9862 34.3081H38.7307L43.7745 20.3379H46.1179L51.1617 34.3081H48.8678L47.5901 30.5321ZM42.8165 28.7897H47.0375L44.9567 22.6615H44.8985L42.8165 28.7897Z" fill="white"/>
        <path d="M62.0547 29.2158C62.0547 32.3809 60.3606 34.4145 57.8041 34.4145C57.1565 34.4484 56.5124 34.2992 55.9457 33.984C55.3789 33.6689 54.9123 33.2005 54.5994 32.6325H54.551V37.6774H52.4603V24.1225H54.484V25.8166H54.5225C54.8498 25.2513 55.3243 24.7853 55.8953 24.4683C56.4664 24.1512 57.1128 23.9949 57.7657 24.0159C60.3507 24.0159 62.0547 26.0594 62.0547 29.2158ZM59.9058 29.2158C59.9058 27.1536 58.8401 25.7979 57.2141 25.7979C55.6167 25.7979 54.5423 27.1822 54.5423 29.2158C54.5423 31.268 55.6167 32.6424 57.2141 32.6424C58.8401 32.6424 59.9058 31.2966 59.9058 29.2158Z" fill="white"/>
        <path d="M73.2652 29.2157C73.2652 32.3809 71.5711 34.4145 69.0146 34.4145C68.3669 34.4483 67.7229 34.2992 67.1561 33.984C66.5894 33.6689 66.1228 33.2005 65.8099 32.6325H65.7615V37.6774H63.6708V24.1225H65.6944V25.8166H65.7329C66.0602 25.2513 66.5347 24.7853 67.1058 24.4683C67.6768 24.1512 68.3232 23.9949 68.9761 24.0159C71.5612 24.0159 73.2652 26.0594 73.2652 29.2157ZM71.1162 29.2157C71.1162 27.1536 70.0506 25.7979 68.4246 25.7979C66.8272 25.7979 65.7527 27.1822 65.7527 29.2157C65.7527 31.268 66.8272 32.6424 68.4246 32.6424C70.0506 32.6424 71.1162 31.2966 71.1162 29.2157H71.1162Z" fill="white"/>
        <path d="M80.6744 30.4157C80.8293 31.8011 82.1751 32.7107 84.0142 32.7107C85.7764 32.7107 87.0442 31.801 87.0442 30.5519C87.0442 29.4675 86.2796 28.8183 84.469 28.3733L82.6585 27.9371C80.0932 27.3175 78.9023 26.1178 78.9023 24.171C78.9023 21.7606 81.0029 20.105 83.9856 20.105C86.9376 20.105 88.9613 21.7606 89.0295 24.171H86.919C86.7926 22.7769 85.6401 21.9353 83.9559 21.9353C82.2717 21.9353 81.1193 22.7868 81.1193 24.026C81.1193 25.0137 81.8554 25.5949 83.656 26.0398L85.1952 26.4177C88.0615 27.0955 89.2525 28.2469 89.2525 30.2904C89.2525 32.904 87.1705 34.541 83.8593 34.541C80.7611 34.541 78.6693 32.9425 78.5342 30.4156L80.6744 30.4157Z" fill="white"/>
        <path d="M93.7645 21.7131V24.1235H95.7014V25.7792H93.7645V31.3943C93.7645 32.2666 94.1524 32.6731 95.0038 32.6731C95.2337 32.6691 95.4633 32.6529 95.6915 32.6247V34.2705C95.3087 34.342 94.9196 34.3744 94.5303 34.3672C92.4681 34.3672 91.6639 33.5926 91.6639 31.6173V25.7792H90.183V24.1235H91.6639V21.7131H93.7645Z" fill="white"/>
        <path d="M96.8231 29.2168C96.8231 26.0121 98.7106 23.9983 101.654 23.9983C104.607 23.9983 106.486 26.012 106.486 29.2168C106.486 32.4303 104.617 34.4353 101.654 34.4353C98.6918 34.4353 96.8231 32.4303 96.8231 29.2168ZM104.355 29.2168C104.355 27.0184 103.348 25.7209 101.654 25.7209C99.9597 25.7209 98.9534 27.0283 98.9534 29.2168C98.9534 31.4239 99.9597 32.7115 101.654 32.7115C103.348 32.7115 104.355 31.4239 104.355 29.2168H104.355Z" fill="white"/>
        <path d="M108.209 24.1224H110.203V25.856H110.252C110.387 25.3146 110.704 24.8361 111.15 24.501C111.596 24.1658 112.144 23.9945 112.702 24.0158C112.943 24.015 113.183 24.0411 113.418 24.0938V26.0494C113.114 25.9564 112.797 25.9138 112.479 25.923C112.175 25.9107 111.872 25.9643 111.591 26.08C111.31 26.1958 111.057 26.371 110.85 26.5936C110.643 26.8162 110.487 27.081 110.392 27.3698C110.297 27.6585 110.266 27.9644 110.3 28.2664V34.3078H108.209L108.209 24.1224Z" fill="white"/>
        <path d="M123.057 31.3174C122.776 33.1664 120.975 34.4353 118.672 34.4353C115.709 34.4353 113.87 32.4501 113.87 29.2651C113.87 26.0703 115.719 23.9983 118.584 23.9983C121.402 23.9983 123.174 25.9341 123.174 29.0223V29.7386H115.98V29.865C115.947 30.2398 115.994 30.6175 116.118 30.9728C116.242 31.3281 116.44 31.653 116.699 31.9259C116.958 32.1987 117.272 32.4133 117.621 32.5554C117.969 32.6975 118.344 32.7638 118.72 32.75C119.214 32.7963 119.71 32.6819 120.134 32.4237C120.557 32.1656 120.887 31.7776 121.072 31.3174L123.057 31.3174ZM115.99 28.2775H121.082C121.101 27.9404 121.05 27.6031 120.932 27.2868C120.814 26.9704 120.632 26.6818 120.398 26.4391C120.163 26.1963 119.881 26.0047 119.569 25.8762C119.257 25.7477 118.921 25.6851 118.584 25.6924C118.243 25.6904 117.906 25.7558 117.591 25.8848C117.276 26.0139 116.989 26.2041 116.748 26.4445C116.507 26.6848 116.316 26.9705 116.186 27.2851C116.056 27.5997 115.989 27.937 115.99 28.2775V28.2775Z" fill="white"/>
        <path d="M42.5544 9.82268C42.9928 9.79123 43.4326 9.85744 43.8422 10.0166C44.2518 10.1757 44.6211 10.4237 44.9232 10.7428C45.2254 11.0619 45.4529 11.444 45.5895 11.8617C45.7261 12.2794 45.7683 12.7222 45.713 13.1581C45.713 15.3027 44.554 16.5354 42.5544 16.5354H40.1298V9.82268H42.5544ZM41.1724 15.5861H42.438C42.7512 15.6048 43.0646 15.5534 43.3555 15.4357C43.6463 15.318 43.9073 15.137 44.1194 14.9057C44.3314 14.6745 44.4892 14.3988 44.5813 14.0989C44.6734 13.7989 44.6975 13.4822 44.6517 13.1718C44.6941 12.8626 44.6677 12.5479 44.5741 12.2501C44.4806 11.9524 44.3224 11.679 44.1109 11.4496C43.8993 11.2202 43.6396 11.0404 43.3504 10.9231C43.0612 10.8058 42.7496 10.754 42.438 10.7713H41.1724V15.5861Z" fill="white"/>
        <path d="M46.8907 14.0011C46.8588 13.6682 46.8969 13.3323 47.0025 13.015C47.1081 12.6977 47.2788 12.4059 47.5037 12.1584C47.7287 11.9109 48.0028 11.7132 48.3087 11.5779C48.6145 11.4426 48.9452 11.3727 49.2797 11.3727C49.6141 11.3727 49.9448 11.4426 50.2507 11.5779C50.5565 11.7132 50.8307 11.9109 51.0556 12.1584C51.2805 12.4059 51.4513 12.6977 51.5568 13.015C51.6624 13.3323 51.7005 13.6682 51.6686 14.0011C51.7011 14.3344 51.6635 14.6707 51.5582 14.9886C51.4529 15.3064 51.2823 15.5987 51.0573 15.8467C50.8323 16.0946 50.5579 16.2928 50.2518 16.4284C49.9456 16.564 49.6145 16.634 49.2797 16.634C48.9448 16.634 48.6137 16.564 48.3076 16.4284C48.0014 16.2928 47.7271 16.0946 47.5021 15.8467C47.2771 15.5987 47.1065 15.3064 47.0012 14.9886C46.8959 14.6707 46.8582 14.3344 46.8907 14.0011V14.0011ZM50.6403 14.0011C50.6403 12.903 50.147 12.2609 49.2813 12.2609C48.4123 12.2609 47.9234 12.903 47.9234 14.0011C47.9234 15.108 48.4123 15.7452 49.2813 15.7452C50.1471 15.7452 50.6403 15.1036 50.6403 14.0011H50.6403Z" fill="white"/>
        <path d="M58.0199 16.5354H56.9828L55.9358 12.8044H55.8567L54.8141 16.5354H53.7869L52.3905 11.4696H53.4045L54.312 15.3351H54.3867L55.4282 11.4696H56.3873L57.4288 15.3351H57.5079L58.411 11.4696H59.4108L58.0199 16.5354Z" fill="white"/>
        <path d="M60.5852 11.4692H61.5476V12.274H61.6223C61.7491 11.9849 61.9628 11.7426 62.2338 11.5809C62.5048 11.4191 62.8195 11.3459 63.134 11.3714C63.3805 11.3529 63.628 11.3901 63.8582 11.4802C64.0884 11.5703 64.2953 11.711 64.4637 11.892C64.6321 12.0729 64.7576 12.2895 64.831 12.5255C64.9043 12.7615 64.9236 13.0111 64.8874 13.2556V16.535H63.8877V13.5066C63.8877 12.6926 63.5339 12.2877 62.7946 12.2877C62.6272 12.2799 62.4601 12.3084 62.3048 12.3712C62.1495 12.434 62.0096 12.5297 61.8947 12.6516C61.7798 12.7735 61.6927 12.9189 61.6392 13.0776C61.5857 13.2364 61.5672 13.4049 61.585 13.5715V16.535H60.5852L60.5852 11.4692Z" fill="white"/>
        <path d="M66.4805 9.49207H67.4802V16.5354H66.4805V9.49207Z" fill="white"/>
        <path d="M68.87 13.9995C68.8382 13.6666 68.8763 13.3307 68.9819 13.0133C69.0875 12.696 69.2583 12.4042 69.4832 12.1567C69.7082 11.9092 69.9824 11.7115 70.2882 11.5762C70.5941 11.4409 70.9248 11.371 71.2593 11.371C71.5937 11.371 71.9245 11.4409 72.2303 11.5762C72.5362 11.7115 72.8104 11.9092 73.0354 12.1567C73.2603 12.4042 73.4311 12.696 73.5367 13.0133C73.6422 13.3307 73.6804 13.6666 73.6485 13.9995C73.6809 14.3328 73.6433 14.6691 73.538 14.987C73.4326 15.3048 73.262 15.5971 73.037 15.845C72.812 16.093 72.5376 16.2911 72.2314 16.4267C71.9253 16.5623 71.5941 16.6324 71.2593 16.6324C70.9245 16.6324 70.5933 16.5623 70.2872 16.4267C69.981 16.2911 69.7066 16.093 69.4816 15.845C69.2566 15.5971 69.0859 15.3048 68.9806 14.987C68.8753 14.6691 68.8376 14.3328 68.87 13.9995V13.9995ZM72.6197 13.9995C72.6197 12.9014 72.1264 12.2593 71.2607 12.2593C70.3916 12.2593 69.9028 12.9014 69.9028 13.9995C69.9028 15.1064 70.3917 15.7436 71.2607 15.7436C72.1264 15.7436 72.6197 15.102 72.6197 13.9995H72.6197Z" fill="white"/>
        <path d="M74.701 15.1036C74.701 14.1918 75.38 13.6661 76.5852 13.5914L77.9574 13.5123V13.075C77.9574 12.54 77.6036 12.2379 76.9203 12.2379C76.3622 12.2379 75.9755 12.4427 75.8645 12.8009H74.8966C74.9988 11.9308 75.8173 11.3727 76.9664 11.3727C78.2365 11.3727 78.9528 12.0049 78.9528 13.075V16.5363H77.9904V15.8243H77.9113C77.7507 16.0797 77.5252 16.2879 77.2579 16.4276C76.9906 16.5674 76.691 16.6336 76.3896 16.6197C76.177 16.6418 75.962 16.6191 75.7587 16.5531C75.5553 16.4871 75.3681 16.3792 75.209 16.2363C75.0499 16.0935 74.9225 15.9189 74.835 15.7238C74.7475 15.5287 74.7019 15.3174 74.701 15.1036V15.1036ZM77.9574 14.6708V14.2472L76.7203 14.3263C76.0227 14.373 75.7063 14.6103 75.7063 15.0569C75.7063 15.5129 76.1018 15.7782 76.6457 15.7782C76.805 15.7943 76.966 15.7782 77.119 15.7309C77.272 15.6835 77.4139 15.6059 77.5363 15.5026C77.6587 15.3992 77.759 15.2723 77.8314 15.1295C77.9037 14.9866 77.9466 14.8306 77.9574 14.6708V14.6708Z" fill="white"/>
        <path d="M80.2666 14.0003C80.2666 12.3996 81.0895 11.3856 82.3694 11.3856C82.686 11.371 83.0002 11.4468 83.2753 11.6042C83.5504 11.7616 83.775 11.994 83.9229 12.2743H83.9976V9.49207H84.9973V16.5354H84.0393V15.735H83.9602C83.8009 16.0135 83.5685 16.243 83.2881 16.3988C83.0077 16.5546 82.69 16.6307 82.3694 16.6189C81.0807 16.6189 80.2666 15.6049 80.2666 14.0003ZM81.2994 14.0003C81.2994 15.0748 81.8058 15.7213 82.6529 15.7213C83.4955 15.7213 84.0163 15.0655 84.0163 14.0047C84.0163 12.9489 83.49 12.2837 82.6529 12.2837C81.8113 12.2837 81.2993 12.9346 81.2993 14.0003H81.2994Z" fill="white"/>
        <path d="M89.1337 14.0011C89.1019 13.6682 89.14 13.3323 89.2455 13.015C89.3511 12.6977 89.5218 12.4059 89.7468 12.1584C89.9717 11.9109 90.2459 11.7132 90.5517 11.5779C90.8575 11.4426 91.1883 11.3727 91.5227 11.3727C91.8571 11.3727 92.1879 11.4426 92.4937 11.5779C92.7995 11.7132 93.0737 11.9109 93.2987 12.1584C93.5236 12.4059 93.6943 12.6977 93.7999 13.015C93.9055 13.3323 93.9435 13.6682 93.9117 14.0011C93.9441 14.3344 93.9065 14.6707 93.8012 14.9886C93.6959 15.3064 93.5253 15.5987 93.3003 15.8467C93.0753 16.0946 92.8009 16.2928 92.4948 16.4284C92.1887 16.564 91.8575 16.634 91.5227 16.634C91.1879 16.634 90.8568 16.564 90.5506 16.4284C90.2445 16.2928 89.9701 16.0946 89.7451 15.8467C89.5201 15.5987 89.3495 15.3064 89.2442 14.9886C89.1389 14.6707 89.1013 14.3344 89.1337 14.0011V14.0011ZM92.8834 14.0011C92.8834 12.903 92.3901 12.2609 91.5244 12.2609C90.6553 12.2609 90.1665 12.903 90.1665 14.0011C90.1665 15.108 90.6554 15.7452 91.5244 15.7452C92.3901 15.7452 92.8834 15.1036 92.8834 14.0011Z" fill="white"/>
        <path d="M95.2532 11.4692H96.2156V12.274H96.2903C96.417 11.9849 96.6308 11.7426 96.9018 11.5809C97.1727 11.4191 97.4874 11.3459 97.802 11.3714C98.0485 11.3529 98.296 11.3901 98.5262 11.4802C98.7563 11.5703 98.9633 11.711 99.1317 11.892C99.3001 12.0729 99.4256 12.2895 99.4989 12.5255C99.5723 12.7615 99.5916 13.0111 99.5554 13.2556V16.535H98.5557V13.5066C98.5557 12.6926 98.2019 12.2877 97.4625 12.2877C97.2952 12.2799 97.1281 12.3084 96.9728 12.3712C96.8175 12.434 96.6776 12.5297 96.5627 12.6516C96.4478 12.7735 96.3606 12.9189 96.3072 13.0776C96.2537 13.2364 96.2352 13.4049 96.2529 13.5715V16.535H95.2532V11.4692Z" fill="white"/>
        <path d="M105.205 10.2084V11.4927H106.302V12.3348H105.205V14.9396C105.205 15.4703 105.423 15.7026 105.921 15.7026C106.048 15.7022 106.176 15.6945 106.302 15.6796V16.5123C106.123 16.5444 105.941 16.5615 105.758 16.5634C104.646 16.5634 104.204 16.1723 104.204 15.1956V12.3347H103.4V11.4926H104.204V10.2084H105.205Z" fill="white"/>
        <path d="M107.668 9.49207H108.659V12.2837H108.738C108.871 11.992 109.09 11.7483 109.367 11.5859C109.643 11.4235 109.963 11.3503 110.282 11.3762C110.528 11.3629 110.773 11.4038 111 11.4961C111.228 11.5884 111.432 11.7298 111.599 11.9102C111.766 12.0906 111.89 12.3055 111.964 12.5396C112.038 12.7738 112.06 13.0214 112.027 13.2648V16.5354H111.026V13.5114C111.026 12.7023 110.649 12.2925 109.943 12.2925C109.771 12.2784 109.598 12.302 109.437 12.3617C109.275 12.4214 109.128 12.5157 109.007 12.638C108.885 12.7603 108.792 12.9077 108.733 13.0699C108.675 13.232 108.652 13.405 108.668 13.5768V16.5354H107.668L107.668 9.49207Z" fill="white"/>
        <path d="M117.856 15.1668C117.721 15.6298 117.426 16.0303 117.025 16.2982C116.624 16.5661 116.141 16.6844 115.661 16.6324C115.328 16.6412 114.996 16.5773 114.689 16.4451C114.383 16.3128 114.109 16.1155 113.886 15.8667C113.663 15.6179 113.497 15.3237 113.4 15.0044C113.302 14.6851 113.276 14.3484 113.321 14.0177C113.277 13.6859 113.304 13.3485 113.401 13.0282C113.499 12.708 113.664 12.4124 113.885 12.1614C114.107 11.9105 114.379 11.71 114.685 11.5737C114.991 11.4373 115.322 11.3682 115.657 11.3711C117.066 11.3711 117.917 12.3341 117.917 13.9248V14.2737H114.34V14.3297C114.324 14.5156 114.347 14.7027 114.408 14.879C114.469 15.0554 114.566 15.2171 114.693 15.3537C114.82 15.4903 114.974 15.5989 115.146 15.6725C115.317 15.7461 115.502 15.783 115.689 15.7809C115.928 15.8096 116.17 15.7666 116.385 15.6572C116.599 15.5479 116.777 15.3772 116.894 15.1668L117.856 15.1668ZM114.34 13.5343H116.898C116.911 13.3642 116.888 13.1935 116.83 13.0329C116.773 12.8724 116.683 12.7256 116.565 12.602C116.448 12.4784 116.306 12.3807 116.149 12.3153C115.991 12.2498 115.822 12.218 115.651 12.222C115.478 12.2198 115.307 12.2522 115.147 12.3174C114.987 12.3826 114.841 12.4792 114.719 12.6015C114.597 12.7238 114.5 12.8694 114.435 13.0295C114.37 13.1897 114.337 13.3614 114.34 13.5343H114.34Z" fill="white"/>
    </g>
    <defs>
        <clipPath id="clip0_407_18708">
            <rect width="134.622" height="45" fill="white"/>
        </clipPath>
    </defs>
</svg>
