<svg width="110" height="110" viewBox="0 0 110 110" fill="none" xmlns="http://www.w3.org/2000/svg">
    <circle cx="55" cy="55" r="55" fill="#F7FCF8"/>
    <g clip-path="url(#clip0_335_4982)">
        <path d="M52.6555 26.8815C53.9 25.7062 56 25.7062 57.3444 26.8815L85.7889 51.817C87.2666 53.1195 87.4111 55.3683 86.1222 56.849C84.8222 58.3297 82.5778 58.4744 81.1 57.183L55 34.2961L28.8967 57.183C27.4189 58.4744 25.1733 58.3297 23.8797 56.849C22.5867 55.3683 22.7364 53.1195 24.2144 51.817L52.6555 26.8815ZM62.1111 54.5C62.1111 58.4299 58.9222 61.625 55 61.625C51.0778 61.625 47.8889 58.4299 47.8889 54.5C47.8889 50.5701 51.0778 47.375 55 47.375C58.9222 47.375 62.1111 50.5701 62.1111 54.5ZM58.5555 65.1875C63.4667 65.1875 67.4444 69.173 67.4444 74.0937C67.4444 75.0734 66.6444 75.875 65.6667 75.875H44.3333C43.3556 75.875 42.5556 75.0734 42.5556 74.0937C42.5556 69.173 46.5333 65.1875 51.4444 65.1875H58.5555Z" fill="#2E8540"/>
        <path opacity="0.4" d="M54.998 34.2959L79.898 56.1251L79.9424 75.8636C79.9536 79.8046 76.7647 82.9997 72.8313 82.9997H37.2313C33.3024 82.9997 30.1191 79.8158 30.1169 75.8747L30.1113 56.114L54.998 34.2959ZM54.998 61.6247C58.9202 61.6247 62.1091 58.4296 62.1091 54.4997C62.1091 50.5698 58.9202 47.3747 54.998 47.3747C51.0758 47.3747 47.8869 50.5698 47.8869 54.4997C47.8869 58.4296 51.0758 61.6247 54.998 61.6247ZM44.3313 75.8747H65.6647C66.6424 75.8747 67.4424 75.0732 67.4424 74.0935C67.4424 69.1728 63.4647 65.1872 58.5536 65.1872H51.4424C46.5313 65.1872 42.5536 69.1728 42.5536 74.0935C42.5536 75.0732 43.3536 75.8747 44.3313 75.8747Z" fill="#2E8540"/>
    </g>
    <defs>
        <clipPath id="clip0_335_4982">
            <rect width="64" height="57" fill="white" transform="translate(23 26)"/>
        </clipPath>
    </defs>
</svg>
