<svg width="152" height="45" viewBox="0 0 152 45" fill="none" xmlns="http://www.w3.org/2000/svg">
    <g clip-path="url(#clip0_407_18709)">
        <path d="M146.067 44.8881H6.14181C3.06346 44.8881 0.5448 42.3694 0.5448 39.291V5.70895C0.5448 2.6306 3.06346 0.111938 6.14181 0.111938H146.067C149.146 0.111938 151.664 2.6306 151.664 5.70895V39.291C151.664 42.3694 149.146 44.8881 146.067 44.8881Z" fill="black"/>
        <path d="M146.067 0.111938H6.14181C3.06346 0.111938 0.5448 2.6306 0.5448 5.70895V39.291C0.5448 42.3694 3.06346 44.8881 6.14181 44.8881H146.067C149.146 44.8881 151.664 42.3694 151.664 39.291V5.70895C151.664 2.6306 149.146 0.111938 146.067 0.111938ZM146.067 1.00746C148.66 1.00746 150.769 3.11686 150.769 5.70895V39.291C150.769 41.8836 148.66 43.993 146.067 43.993H6.14181C3.54972 43.993 1.44032 41.8836 1.44032 39.291V5.70895C1.44032 3.11686 3.54972 1.00746 6.14181 1.00746H146.067Z" fill="#A6A6A6"/>
        <path d="M53.6251 11.5783C53.6251 12.5162 53.3474 13.263 52.7911 13.8202C52.1594 14.4826 51.3359 14.8141 50.3236 14.8141C49.3542 14.8141 48.53 14.4783 47.8522 13.8057C47.1732 13.1336 46.8344 12.3002 46.8344 11.3059C46.8344 10.3111 47.1732 9.47812 47.8522 8.80558C48.53 8.13349 49.3542 7.79722 50.3236 7.79722C50.8047 7.79722 51.2652 7.89125 51.7024 8.07886C52.1397 8.26692 52.4904 8.51655 52.7528 8.8292L52.1624 9.41991C51.7178 8.88864 51.1055 8.62323 50.3236 8.62323C49.6166 8.62323 49.0053 8.87162 48.4894 9.36875C47.9733 9.86644 47.7154 10.5118 47.7154 11.3059C47.7154 12.1 47.9733 12.7453 48.4894 13.243C49.0053 13.7401 49.6166 13.9885 50.3236 13.9885C51.0736 13.9885 51.6989 13.7388 52.1995 13.2386C52.5245 12.9128 52.7125 12.4599 52.7627 11.8782H50.3236V11.0715H53.5783C53.6098 11.2469 53.6251 11.4152 53.6251 11.5783Z" fill="white"/>
        <path d="M53.6251 11.5785H53.5132C53.5123 12.4949 53.2446 13.2067 52.712 13.7411L52.7108 13.742L52.7103 13.7429C52.0986 14.3826 51.3123 14.7009 50.3236 14.7023C49.3801 14.7009 48.5904 14.3791 47.9309 13.7267C47.2729 13.073 46.9475 12.275 46.9463 11.306C46.9475 10.3366 47.2729 9.53902 47.9309 8.88574C48.5904 8.2329 49.3801 7.91062 50.3236 7.90928C50.7902 7.90928 51.2345 8.00029 51.6582 8.18174C52.0823 8.36454 52.4174 8.60409 52.667 8.90152L52.7527 8.82932L52.6736 8.75018L52.0832 9.34133L52.1624 9.42003L52.2486 9.34838C51.7832 8.79081 51.1301 8.50973 50.3236 8.51141C49.5904 8.51051 48.9454 8.77245 48.4119 9.2885C47.8733 9.80622 47.6026 10.4878 47.6035 11.306C47.6026 12.1242 47.8733 12.8058 48.4119 13.3235C48.9454 13.8395 49.5904 14.1015 50.3236 14.1006C51.0985 14.1019 51.7588 13.8391 52.2787 13.3179C52.6259 12.9698 52.8227 12.4875 52.8743 11.888L52.8847 11.7664H50.4356V11.1835H53.5783V11.0716L53.468 11.0913C53.4987 11.261 53.5132 11.4223 53.5132 11.5785H53.6251H53.737C53.737 11.4083 53.7213 11.2335 53.6885 11.0516L53.6719 10.9597H50.2117V11.8783V11.9903H52.7627V11.8783L52.6512 11.8687C52.6019 12.432 52.4225 12.8561 52.1204 13.1596C51.6394 13.6388 51.0491 13.8754 50.3236 13.8767C49.6428 13.8758 49.0652 13.6414 48.5672 13.1626C48.074 12.6855 47.8286 12.0765 47.8274 11.306C47.8286 10.5355 48.074 9.92644 48.5672 9.44936C49.0652 8.97059 49.6428 8.73618 50.3236 8.73529C51.0806 8.73708 51.6522 8.98715 52.0767 9.49223L52.1554 9.58581L52.8319 8.90846L52.9044 8.83592L52.8384 8.75757C52.5633 8.42969 52.197 8.16943 51.7465 7.97622C51.2953 7.78245 50.8191 7.6854 50.3236 7.6854C49.3285 7.6845 48.4697 8.03432 47.7731 8.72656C47.0739 9.41745 46.7215 10.2859 46.7224 11.306C46.7215 12.3257 47.0739 13.1945 47.7735 13.8859C48.4697 14.5777 49.3285 14.927 50.3236 14.9261C51.36 14.927 52.2197 14.5828 52.8721 13.8976L52.7911 13.8203L52.8703 13.8994C53.4501 13.32 53.7378 12.5373 53.737 11.5785H53.6251Z" fill="white"/>
        <path d="M58.7847 8.77288H55.726V10.9024H58.4844V11.7095H55.726V13.8391H58.7847V14.6642H54.8638V7.94776H58.7847V8.77288Z" fill="white"/>
        <path d="M58.7847 8.77288V8.66094H55.6141V11.0144H58.3724V11.5972L55.6141 11.5976V13.951H58.6728V14.5522H54.9757V8.05971H58.6728V8.77288H58.7847V8.66094V8.77288H58.8967V7.94776V7.83582H54.7518V14.7761H58.8967V13.8391V13.7271H55.838V11.8215H58.5963V10.9024V10.7905H55.838V8.88482H58.8967V8.77288H58.7847Z" fill="white"/>
        <path d="M62.4241 14.6642H61.5605V8.77288H59.6846V7.94776H64.3V8.77288H62.4241V14.6642Z" fill="white"/>
        <path d="M62.4242 14.6642V14.5522H61.6725V8.66094H59.7966V8.05971H64.1882V8.66094H62.3123V14.6642H62.4242V14.5522V14.6642H62.5361V8.88482H64.412V7.94776V7.83582H59.5728V8.77288V8.88482H61.4486V14.7761H62.4242H62.5361V14.6642H62.4242Z" fill="white"/>
        <path d="M67.6395 14.6642V7.94776H68.5022V14.6642H67.6395Z" fill="white"/>
        <path d="M67.6395 14.6642H67.7515V8.05971H68.3903V14.5522H67.6395V14.6642H67.7515H67.6395V14.7761H68.5022H68.6142V7.83582H67.6395H67.5276V14.7761H67.6395V14.6642Z" fill="white"/>
        <path d="M72.3305 14.6642H71.4669V8.77288H69.5911V7.94776H74.2064V8.77288H72.3305V14.6642Z" fill="white"/>
        <path d="M72.3303 14.6642V14.5522H71.5787V8.66094H69.7029V8.05971H74.0943V8.66094H72.2184V14.6642H72.3303V14.5522V14.6642H72.4423V8.88482H74.3182V7.94776V7.83582H69.479V8.77288V8.88482H71.3548V14.7761H72.3303H72.4423V14.6642H72.3303Z" fill="white"/>
        <path d="M78.656 13.2338C79.1531 13.7371 79.7614 13.9885 80.4808 13.9885C81.2001 13.9885 81.8087 13.7371 82.305 13.2338C82.8026 12.7305 83.0519 12.0872 83.0519 11.3059C83.0519 10.5245 82.8026 9.88121 82.305 9.37793C81.8087 8.87465 81.2001 8.62323 80.4808 8.62323C79.7614 8.62323 79.1531 8.87465 78.656 9.37793C78.1597 9.88121 77.9105 10.5245 77.9105 11.3059C77.9105 12.0872 78.1597 12.7305 78.656 13.2338ZM82.9434 13.7961C82.2831 14.4751 81.4619 14.8141 80.4808 14.8141C79.4986 14.8141 78.6778 14.4751 78.019 13.7961C77.3582 13.1179 77.0294 12.2876 77.0294 11.3059C77.0294 10.3242 77.3582 9.49379 78.019 8.81565C78.6778 8.13651 79.4986 7.79722 80.4808 7.79722C81.4568 7.79722 82.2757 8.1383 82.9391 8.82002C83.6015 9.50173 83.933 10.3303 83.933 11.3059C83.933 12.2876 83.6023 13.1179 82.9434 13.7961Z" fill="white"/>
        <path d="M78.6559 13.2339L78.5763 13.3126C79.0919 13.8361 79.7351 14.1019 80.4806 14.1006C81.2257 14.1019 81.8698 13.8361 82.3845 13.3126C82.9035 12.7888 83.1645 12.111 83.1637 11.306C83.1645 10.501 82.9035 9.82324 82.3845 9.29935C81.8698 8.77592 81.2257 8.51006 80.4806 8.51141C79.7351 8.51006 79.0919 8.77592 78.5763 9.29935C78.0586 9.82324 77.7971 10.501 77.7984 11.306C77.7971 12.111 78.0586 12.7888 78.5763 13.3126L78.6559 13.2339L78.7355 13.1552C78.2606 12.672 78.0232 12.0642 78.0223 11.306C78.0232 10.5478 78.2606 9.93999 78.7355 9.45674C79.2147 8.97361 79.7871 8.73663 80.4806 8.73529C81.1737 8.73663 81.7473 8.97361 82.2253 9.45674C82.7011 9.93999 82.9385 10.5478 82.9394 11.306C82.9385 12.0642 82.7011 12.672 82.2253 13.1552C81.7473 13.6384 81.1737 13.8754 80.4806 13.8767C79.7871 13.8754 79.2147 13.6384 78.7355 13.1552L78.6559 13.2339ZM82.9433 13.7962L82.8633 13.7184C82.2214 14.3761 81.4365 14.7009 80.4806 14.7023C79.5243 14.7009 78.7394 14.3761 78.0988 13.7184L78.0958 13.715L78.0988 13.7184C77.4582 13.0585 77.1421 12.2628 77.1412 11.306C77.1421 10.3492 77.4582 9.55346 78.0988 8.89357C78.7394 8.23592 79.5243 7.91062 80.4806 7.90928C81.4303 7.91062 82.2135 8.23727 82.8589 8.89838C83.5017 9.5613 83.8196 10.3558 83.8209 11.306C83.8196 12.2628 83.5026 13.0585 82.8633 13.7184L82.9433 13.7962L83.0238 13.874C83.7024 13.1771 84.0456 12.3126 84.0448 11.306C84.0456 10.3051 83.701 9.44241 83.0193 8.74234C82.3373 8.03958 81.4828 7.68417 80.4806 7.6854C79.4732 7.68417 78.6162 8.0379 77.9384 8.73797V8.73752C77.2584 9.43491 76.9165 10.2994 76.9174 11.306C76.9165 12.3126 77.2584 13.1771 77.9384 13.8745L77.9414 13.8776L77.9384 13.874C78.6162 14.5741 79.4732 14.927 80.4806 14.9261C81.4876 14.927 82.3447 14.5741 83.0238 13.874L82.9433 13.7962Z" fill="white"/>
        <path d="M85.1442 14.6642V7.94776H86.1945L89.4587 13.1727H89.4958L89.4587 11.8783V7.94776H90.3223V14.6642H89.4215L86.0064 9.18605H85.9693L86.0064 10.4809V14.6642H85.1442Z" fill="white"/>
        <path d="M85.1442 14.6642H85.2561V8.05971H86.1324L89.3965 13.2846H89.4958H89.6108L89.5706 11.8766V8.05971H90.2103V14.5522H89.4836L86.0686 9.07411H85.9693H85.8543L85.8945 10.4827V14.5522H85.1442V14.6642H85.2561H85.1442V14.7761H86.0064H86.1184V10.4791L86.0812 9.18303L85.9693 9.18605V9.29799H86.0064V9.18605L85.9115 9.2456L89.3594 14.7761H90.3223H90.4342V7.83582H89.4587H89.3467V11.8797L89.3839 13.1757L89.4958 13.1727V13.0607H89.4587V13.1727L89.5536 13.1132L86.2565 7.83582H85.1442H85.0322V14.7761H85.1442V14.6642Z" fill="white"/>
        <path d="M120.249 33.694H122.338V19.7002H120.249V33.694ZM139.063 24.7411L136.669 30.8081H136.597L134.112 24.7411H131.862L135.588 33.2209L133.464 37.9377H135.643L141.386 24.7411H139.063ZM127.218 32.1046C126.532 32.1046 125.579 31.7626 125.579 30.9161C125.579 29.836 126.768 29.422 127.793 29.422C128.712 29.422 129.143 29.62 129.701 29.8903C129.539 31.1864 128.423 32.1046 127.218 32.1046ZM127.469 24.4349C125.957 24.4349 124.391 25.1013 123.743 26.5776L125.597 27.3515C125.993 26.5776 126.731 26.3252 127.505 26.3252C128.585 26.3252 129.684 26.9737 129.701 28.1259V28.2698C129.323 28.0537 128.514 27.7298 127.523 27.7298C125.525 27.7298 123.49 28.8277 123.49 30.8802C123.49 32.7526 125.129 33.959 126.965 33.959C128.369 33.959 129.143 33.3289 129.63 32.5909H129.701V33.6709H131.718V28.3056C131.718 25.8215 129.864 24.4349 127.469 24.4349ZM114.56 26.4446H111.59V21.6478H114.56C116.122 21.6478 117.009 22.9407 117.009 24.0461C117.009 25.1306 116.122 26.4446 114.56 26.4446ZM114.507 19.7002H109.502V33.694H111.59V28.3922H114.507C116.822 28.3922 119.097 26.7161 119.097 24.0461C119.097 21.3763 116.822 19.7002 114.507 19.7002ZM87.2145 32.1072C85.7715 32.1072 84.5633 30.899 84.5633 29.2396C84.5633 27.5627 85.7715 26.3362 87.2145 26.3362C88.6392 26.3362 89.7573 27.5627 89.7573 29.2396C89.7573 30.899 88.6392 32.1072 87.2145 32.1072ZM89.613 25.5246H89.5408C89.0721 24.9657 88.1699 24.4608 87.034 24.4608C84.6535 24.4608 82.4715 26.5526 82.4715 29.2396C82.4715 31.9087 84.6535 33.9826 87.034 33.9826C88.1699 33.9826 89.0721 33.4776 89.5408 32.9008H89.613V33.586C89.613 35.4077 88.6392 36.3815 87.0702 36.3815C85.7899 36.3815 84.9963 35.4615 84.6714 34.6862L82.8502 35.4436C83.3732 36.7059 84.7619 38.257 87.0702 38.257C89.5229 38.257 91.5968 36.8139 91.5968 33.2974V24.7493H89.613V25.5246ZM93.0393 33.694H95.1313V19.6997H93.0393V33.694ZM98.2152 29.0774C98.1611 27.2378 99.6399 26.3003 100.704 26.3003C101.534 26.3003 102.237 26.7148 102.471 27.3104L98.2152 29.0774ZM104.707 27.4905C104.311 26.4262 103.102 24.4608 100.632 24.4608C98.179 24.4608 96.1413 26.3904 96.1413 29.2217C96.1413 31.8908 98.1611 33.9826 100.866 33.9826C103.048 33.9826 104.311 32.6481 104.834 31.8728L103.211 30.7905C102.67 31.5842 101.93 32.1072 100.866 32.1072C99.8021 32.1072 99.0448 31.6201 98.5577 30.6646L104.923 28.0314L104.707 27.4905ZM53.9893 25.9216V27.9413H58.8223C58.678 29.0774 58.2993 29.9069 57.7222 30.484C57.0191 31.1876 55.9189 31.9629 53.9893 31.9629C51.0136 31.9629 48.6874 29.5645 48.6874 26.5889C48.6874 23.6133 51.0136 21.2145 53.9893 21.2145C55.5944 21.2145 56.7663 21.8458 57.6321 22.6574L59.0567 21.2329C57.8486 20.0784 56.2433 19.1948 53.9893 19.1948C49.9134 19.1948 46.4871 22.5131 46.4871 26.5889C46.4871 30.6646 49.9134 33.9826 53.9893 33.9826C56.1896 33.9826 57.8486 33.2616 59.1468 31.9087C60.4814 30.5742 60.8964 28.6987 60.8964 27.184C60.8964 26.7148 60.8604 26.2824 60.7879 25.9216H53.9893ZM66.3911 32.1072C64.948 32.1072 63.7036 30.9169 63.7036 29.2217C63.7036 27.5085 64.948 26.3362 66.3911 26.3362C67.8335 26.3362 69.078 27.5085 69.078 29.2217C69.078 30.9169 67.8335 32.1072 66.3911 32.1072ZM66.3911 24.4608C63.7578 24.4608 61.6117 26.4625 61.6117 29.2217C61.6117 31.9629 63.7578 33.9826 66.3911 33.9826C69.0238 33.9826 71.1699 31.9629 71.1699 29.2217C71.1699 26.4625 69.0238 24.4608 66.3911 24.4608ZM76.8163 32.1072C75.3738 32.1072 74.1293 30.9169 74.1293 29.2217C74.1293 27.5085 75.3738 26.3362 76.8163 26.3362C78.2589 26.3362 79.5033 27.5085 79.5033 29.2217C79.5033 30.9169 78.2589 32.1072 76.8163 32.1072ZM76.8163 24.4608C74.1831 24.4608 72.0374 26.4625 72.0374 29.2217C72.0374 31.9629 74.1831 33.9826 76.8163 33.9826C79.4491 33.9826 81.5952 31.9629 81.5952 29.2217C81.5952 26.4625 79.4491 24.4608 76.8163 24.4608Z" fill="white"/>
        <path d="M12.3095 36.3688L12.2263 36.2892C11.9006 35.9445 11.7083 35.4093 11.7083 34.7163V34.8794V10.1227C11.7083 10.1204 11.7083 10.1188 11.7083 10.117C11.7083 10.1191 11.7083 10.1209 11.7083 10.1231V10.2867C11.7083 9.53623 11.9325 8.97093 12.3081 8.63198L26.1773 22.5008L12.3095 36.3688ZM11.7083 10.1156C11.7083 10.054 11.7099 9.99407 11.7131 9.93507C11.7099 9.99362 11.7083 10.054 11.7083 10.1156ZM11.7131 9.93239C11.7131 9.9316 11.7131 9.93071 11.7134 9.92981C11.7131 9.93071 11.7131 9.9316 11.7131 9.93239ZM11.7134 9.92455C11.7134 9.9241 11.7134 9.92366 11.7134 9.92321C11.7134 9.92366 11.7134 9.9241 11.7134 9.92455Z" fill="url(#paint0_linear_407_18709)"/>
        <path d="M30.7997 27.2893L30.9052 27.2294L36.3823 24.1174C36.9045 23.8205 37.2525 23.4606 37.4261 23.0798C37.253 23.4606 36.9048 23.8209 36.3823 24.1178L30.9052 27.2299L30.7997 27.2893ZM30.8011 27.1253L26.1774 22.5008L30.8006 17.8771L36.3823 21.0482C37.0911 21.4509 37.4891 21.97 37.5555 22.5004C37.5555 22.5008 37.5555 22.5017 37.5555 22.5025C37.4891 23.0317 37.0911 23.5512 36.3823 23.9538L30.8011 27.1253Z" fill="url(#paint1_linear_407_18709)"/>
        <path d="M13.2982 36.897C12.9107 36.897 12.5727 36.771 12.3091 36.5332L12.3095 36.5327C12.5731 36.7706 12.9116 36.897 13.2991 36.897C13.3327 36.897 13.3668 36.8961 13.4014 36.8944C13.3663 36.8961 13.3318 36.897 13.2982 36.897ZM13.2986 36.733C12.9112 36.7334 12.5731 36.607 12.3095 36.3692V36.3688L26.1774 22.5009L30.801 27.1254L14.5527 36.3574C14.1031 36.6123 13.6772 36.733 13.2986 36.733ZM12.3056 36.5301C12.2811 36.5079 12.257 36.4842 12.2334 36.4597L12.3056 36.5301Z" fill="url(#paint2_linear_407_18709)"/>
        <path d="M26.1773 22.5009L12.3081 8.63202C12.5717 8.39459 12.9093 8.26866 13.2963 8.26866C13.6759 8.26866 14.1022 8.38978 14.5526 8.64512L30.8005 17.8772L26.1773 22.5009ZM30.9051 17.7727L14.5526 8.48168C14.1022 8.22623 13.6759 8.10512 13.2963 8.10512C13.2945 8.10512 13.2933 8.10512 13.2915 8.10512C13.2937 8.10512 13.2954 8.10512 13.2981 8.10512C13.6768 8.10512 14.1026 8.22579 14.5526 8.48123L30.9051 17.7727Z" fill="url(#paint3_linear_407_18709)"/>
        <path d="M13.4014 36.8943C13.7533 36.8741 14.143 36.753 14.5527 36.5209L30.7997 27.2893L14.5527 36.5209C14.1433 36.7535 13.7533 36.8741 13.4014 36.8943ZM12.309 36.5331L12.3056 36.53C12.3068 36.5309 12.3081 36.5322 12.309 36.5331ZM12.2334 36.4596L12.2263 36.4527V36.4522C12.229 36.4548 12.2311 36.4574 12.2334 36.4596Z" fill="black"/>
        <path d="M30.7997 27.2893L30.9051 27.2294L30.7997 27.2893Z" fill="url(#paint4_linear_407_18709)"/>
        <path d="M13.299 36.897C12.9116 36.897 12.5731 36.7706 12.3095 36.5327L12.309 36.5332C12.3081 36.5323 12.3068 36.531 12.3056 36.5301L12.2334 36.4597C12.2311 36.4575 12.229 36.4549 12.2263 36.4523L12.3095 36.3692C12.5731 36.607 12.9112 36.7334 13.2986 36.733C13.6772 36.733 14.1031 36.6123 14.5527 36.3574L30.801 27.1254L30.9051 27.2295L30.7997 27.2894L14.5527 36.521C14.143 36.7531 13.7533 36.8742 13.4014 36.8944C13.3668 36.8961 13.3326 36.897 13.299 36.897Z" fill="url(#paint5_linear_407_18709)"/>
        <path d="M12.2263 36.4528C11.9006 36.1081 11.7083 35.5729 11.7083 34.8799V34.8794C11.7083 35.5729 11.9006 36.1076 12.2263 36.4523V36.4528Z" fill="black"/>
        <path d="M12.2263 36.4524C11.9006 36.1077 11.7083 35.573 11.7083 34.8795V34.7164C11.7083 35.4094 11.9006 35.9446 12.2263 36.2893L12.3095 36.3689L12.2263 36.4524Z" fill="url(#paint6_linear_407_18709)"/>
        <path d="M12.2263 36.4524L12.3095 36.3689V36.3692L12.2263 36.4524Z" fill="url(#paint7_linear_407_18709)"/>
        <path d="M37.4261 23.0798C37.5122 22.8909 37.5556 22.6968 37.5556 22.5026C37.5556 22.5022 37.5556 22.5018 37.5556 22.5018C37.5556 22.6963 37.5122 22.8904 37.4261 23.0798Z" fill="black"/>
        <path d="M30.9051 27.2294L30.801 27.1253L36.3823 23.9538C37.0911 23.5511 37.489 23.0316 37.5555 22.5025C37.5555 22.6967 37.5122 22.8908 37.4261 23.0797C37.2525 23.4606 36.9045 23.8204 36.3823 24.1173L30.9051 27.2294Z" fill="url(#paint8_linear_407_18709)"/>
        <path d="M37.5555 22.5009V22.5004C37.555 21.9148 37.1637 21.3294 36.3822 20.8851L30.9051 17.7731H30.9047L30.9051 17.7727L36.3822 20.8847C37.1646 21.329 37.5564 21.9153 37.5555 22.5009Z" fill="#404040"/>
        <path d="M37.5556 22.5004C37.4891 21.97 37.0911 21.4509 36.3823 21.0482L30.8007 17.8771L30.9048 17.773H30.9052L36.3823 20.8851C37.1638 21.3294 37.5551 21.9148 37.5556 22.5004Z" fill="url(#paint9_linear_407_18709)"/>
        <path d="M11.7083 10.1169C11.7083 10.1165 11.7083 10.116 11.7083 10.1156C11.7083 10.116 11.7083 10.1165 11.7083 10.1169ZM11.7131 9.93504C11.7131 9.93415 11.7131 9.93325 11.7131 9.93236C11.7131 9.93325 11.7131 9.93415 11.7131 9.93504ZM11.7134 9.92978C11.7134 9.92799 11.7134 9.92631 11.7134 9.92452C11.7134 9.92631 11.7134 9.92799 11.7134 9.92978ZM11.7134 9.92318C11.7782 8.77321 12.4035 8.10896 13.2881 8.10504C12.9046 8.10728 12.5705 8.23321 12.309 8.46885V8.4684L12.3059 8.47153C12.2784 8.49638 12.2522 8.52269 12.2263 8.54978C11.9325 8.86064 11.7471 9.32631 11.7134 9.92318Z" fill="#404040"/>
        <path d="M11.7083 10.2867V10.1232C11.7083 10.121 11.7083 10.1192 11.7083 10.117C11.7083 10.1166 11.7083 10.1161 11.7083 10.1157C11.7083 10.054 11.7099 9.99368 11.7131 9.93514C11.7131 9.93424 11.7131 9.93335 11.7131 9.93245C11.7131 9.93167 11.7131 9.93077 11.7134 9.92988C11.7134 9.92809 11.7134 9.92641 11.7134 9.92462C11.7134 9.92417 11.7134 9.92372 11.7134 9.92327C11.7471 9.32641 11.9325 8.86073 12.2263 8.54988L12.3081 8.63204C11.9325 8.971 11.7083 9.53629 11.7083 10.2867ZM12.3059 8.47163L12.309 8.4685C12.3081 8.46984 12.3068 8.47073 12.3059 8.47163Z" fill="url(#paint10_linear_407_18709)"/>
        <path d="M30.8006 17.8771L14.5527 8.64502C14.1022 8.38969 13.6759 8.26857 13.2964 8.26857C12.9094 8.26857 12.5718 8.3945 12.3081 8.63193L12.2263 8.54976C12.2522 8.52267 12.2784 8.49637 12.3059 8.47151C12.3068 8.47062 12.3081 8.46972 12.309 8.46883C12.5705 8.2332 12.9046 8.10726 13.2881 8.10502C13.289 8.10502 13.2902 8.10502 13.2915 8.10502C13.2933 8.10502 13.2946 8.10502 13.2964 8.10502C13.6759 8.10502 14.1022 8.22614 14.5527 8.48159L30.9051 17.7726L30.9047 17.773L30.8006 17.8771Z" fill="url(#paint11_linear_407_18709)"/>
    </g>
    <defs>
        <linearGradient id="paint0_linear_407_18709" x1="24.9475" y1="9.86153" x2="6.16116" y2="28.6479" gradientUnits="userSpaceOnUse">
            <stop stop-color="#00A0FF"/>
            <stop offset="0.00657445" stop-color="#00A1FF"/>
            <stop offset="0.2601" stop-color="#00BEFF"/>
            <stop offset="0.5122" stop-color="#00D2FF"/>
            <stop offset="0.7604" stop-color="#00DFFF"/>
            <stop offset="1" stop-color="#00E3FF"/>
        </linearGradient>
        <linearGradient id="paint1_linear_407_18709" x1="38.4192" y1="22.5015" x2="11.333" y2="22.5015" gradientUnits="userSpaceOnUse">
            <stop stop-color="#FFE000"/>
            <stop offset="0.4087" stop-color="#FFBD00"/>
            <stop offset="0.7754" stop-color="#FFA500"/>
            <stop offset="1" stop-color="#FF9C00"/>
        </linearGradient>
        <linearGradient id="paint2_linear_407_18709" x1="28.3362" y1="25.0702" x2="2.8605" y2="50.546" gradientUnits="userSpaceOnUse">
            <stop stop-color="#FF3A44"/>
            <stop offset="1" stop-color="#C31162"/>
        </linearGradient>
        <linearGradient id="paint3_linear_407_18709" x1="8.71337" y1="0.309149" x2="20.0893" y2="11.6851" gradientUnits="userSpaceOnUse">
            <stop stop-color="#32A071"/>
            <stop offset="0.0685" stop-color="#2DA771"/>
            <stop offset="0.4762" stop-color="#15CF74"/>
            <stop offset="0.8009" stop-color="#06E775"/>
            <stop offset="1" stop-color="#00F076"/>
        </linearGradient>
        <linearGradient id="paint4_linear_407_18709" x1="38.4193" y1="22.5016" x2="11.3326" y2="22.5016" gradientUnits="userSpaceOnUse">
            <stop stop-color="#CCB300"/>
            <stop offset="0.4087" stop-color="#CC9700"/>
            <stop offset="0.7754" stop-color="#CC8400"/>
            <stop offset="1" stop-color="#CC7D00"/>
        </linearGradient>
        <linearGradient id="paint5_linear_407_18709" x1="28.3362" y1="25.0703" x2="2.86051" y2="50.546" gradientUnits="userSpaceOnUse">
            <stop stop-color="#CC2E36"/>
            <stop offset="1" stop-color="#9C0E4E"/>
        </linearGradient>
        <linearGradient id="paint6_linear_407_18709" x1="24.9476" y1="9.86166" x2="6.16122" y2="28.6481" gradientUnits="userSpaceOnUse">
            <stop stop-color="#008DE0"/>
            <stop offset="0.00657445" stop-color="#008DE0"/>
            <stop offset="0.2601" stop-color="#00A7E0"/>
            <stop offset="0.5122" stop-color="#00B8E0"/>
            <stop offset="0.7604" stop-color="#00C4E0"/>
            <stop offset="1" stop-color="#00C7E0"/>
        </linearGradient>
        <linearGradient id="paint7_linear_407_18709" x1="28.3368" y1="25.0703" x2="2.86107" y2="50.5469" gradientUnits="userSpaceOnUse">
            <stop stop-color="#E0333C"/>
            <stop offset="1" stop-color="#AB0F56"/>
        </linearGradient>
        <linearGradient id="paint8_linear_407_18709" x1="38.4191" y1="22.5015" x2="11.3329" y2="22.5015" gradientUnits="userSpaceOnUse">
            <stop stop-color="#E0C500"/>
            <stop offset="0.4087" stop-color="#E0A600"/>
            <stop offset="0.7754" stop-color="#E09100"/>
            <stop offset="1" stop-color="#E08900"/>
        </linearGradient>
        <linearGradient id="paint9_linear_407_18709" x1="38.4192" y1="22.5015" x2="11.333" y2="22.5015" gradientUnits="userSpaceOnUse">
            <stop stop-color="#FFE840"/>
            <stop offset="0.4087" stop-color="#FFCE40"/>
            <stop offset="0.7754" stop-color="#FFBC40"/>
            <stop offset="1" stop-color="#FFB540"/>
        </linearGradient>
        <linearGradient id="paint10_linear_407_18709" x1="24.9476" y1="9.86159" x2="6.16117" y2="28.648" gradientUnits="userSpaceOnUse">
            <stop stop-color="#40B8FF"/>
            <stop offset="0.00657445" stop-color="#40B9FF"/>
            <stop offset="0.2601" stop-color="#40CEFF"/>
            <stop offset="0.5122" stop-color="#40DDFF"/>
            <stop offset="0.7604" stop-color="#40E7FF"/>
            <stop offset="1" stop-color="#40EAFF"/>
        </linearGradient>
        <linearGradient id="paint11_linear_407_18709" x1="8.71341" y1="0.309053" x2="20.0893" y2="11.685" gradientUnits="userSpaceOnUse">
            <stop stop-color="#65B895"/>
            <stop offset="0.0685" stop-color="#62BD95"/>
            <stop offset="0.4762" stop-color="#50DB97"/>
            <stop offset="0.8009" stop-color="#44ED98"/>
            <stop offset="1" stop-color="#40F498"/>
        </linearGradient>
        <clipPath id="clip0_407_18709">
            <rect width="151.455" height="45" fill="white" transform="translate(0.432861)"/>
        </clipPath>
    </defs>
</svg>
