<svg width="110" height="110" viewBox="0 0 110 110" fill="none" xmlns="http://www.w3.org/2000/svg">
    <circle cx="55" cy="55" r="55" fill="#FCFAF7"/>
    <g clip-path="url(#clip0_335_4894)">
        <path d="M60.122 28.4829L52.9147 27.0542C51.4297 26.7589 49.9859 27.7116 49.688 29.1805C49.6878 29.1822 49.6884 29.1787 49.688 29.1805L49.3167 30.9638C49.018 32.4319 49.9869 33.8649 51.4721 34.1606C51.4738 34.161 51.4703 34.1604 51.4721 34.1606L54.9886 34.847L55.0001 48.7501C55.0001 54.7563 50.0753 59.6251 44.0001 59.6251C37.9249 59.6251 32.9932 54.652 32.9932 48.7388L32.9875 34.8584L36.5075 34.166C37.9959 33.874 38.8553 32.4455 38.6605 30.9763C38.66 30.9743 38.6609 30.9783 38.6605 30.9763L38.3053 29.1943C38.0074 27.7247 36.5636 26.7739 35.074 27.066C35.072 27.0664 35.0761 27.0655 35.074 27.066L27.8759 28.4716C26.5903 28.7299 25.669 29.8491 25.6667 31.1451V48.749C25.6667 58.7415 33.8938 66.8751 44.0001 66.8751C54.1063 66.8751 62.3334 58.7438 62.3334 48.7501V31.1451C62.2303 29.8502 61.4053 28.7367 60.122 28.4829ZM77.0001 39.6876C71.9378 39.6876 67.8334 43.7453 67.8334 48.7501C67.8334 53.7549 71.9355 57.8126 77.0001 57.8126C82.0624 57.8126 86.1667 53.756 86.1667 48.852C86.1667 43.9481 82.0647 39.6876 77.0001 39.6876ZM77.0001 51.4688C75.4841 51.4688 74.2501 50.2488 74.2501 48.7501C74.2501 47.2514 75.4876 46.0313 77.0001 46.0313C78.516 46.0313 79.7501 47.2514 79.7501 48.7501C79.7501 50.2488 78.5126 51.4688 77.0001 51.4688Z" fill="#FCBA19"/>
        <path opacity="0.4" d="M80.6666 57.0535V65.9744C80.6666 76.4642 71.6145 85.0056 60.4999 85.0056C49.5698 85.0056 40.6426 76.7565 40.3447 66.5181L40.4059 66.5231C41.5708 66.7503 42.7739 66.875 43.9999 66.875C45.226 66.875 46.4291 66.7455 47.5921 66.5158L47.6919 66.5109C48.0014 72.7527 53.6377 77.7518 60.5138 77.7518C67.5951 77.7518 73.3471 72.4615 73.3471 65.9705V57.0535C74.4676 57.5406 75.6937 57.8125 76.9999 57.8125C78.3062 57.8125 79.5437 57.5292 80.6666 57.0535Z" fill="#FCBA19"/>
    </g>
    <defs>
        <clipPath id="clip0_335_4894">
            <rect width="66" height="58" fill="white" transform="translate(22 27)"/>
        </clipPath>
    </defs>
</svg>
