<svg width="110" height="110" viewBox="0 0 110 110" fill="none" xmlns="http://www.w3.org/2000/svg">
    <circle cx="55" cy="55" r="55" fill="#FCFAF7"/>
    <path d="M61.005 54.5L39.4405 76.0168C38.5589 76.7912 37.3913 77.375 36.0927 77.375C35.3046 77.375 33.8016 77.1646 32.5852 75.7487C31.0542 73.9723 31.383 70.9545 33.3128 69.0244L47.8519 54.5H61.005Z" fill="#FCBA19"/>
    <path opacity="0.4" d="M83.88 44.1824L64.8175 25.1199C64.0788 24.3723 63.1019 24 62.1249 24C61.1479 24 60.1734 24.3723 59.4299 25.1169C57.9407 26.6062 57.9407 29.0188 59.4299 30.5081L60.2609 31.3393L27.9262 63.6264C23.3095 68.2431 22.5494 75.7788 26.8092 80.7231C29.2516 83.5703 32.6686 85 36.0927 85H36.146C39.2889 85 42.4306 83.9158 44.8289 81.4115L77.6164 48.6955L78.4939 49.5732C79.2335 50.3182 80.2104 50.6875 81.1874 50.6875C82.1644 50.6875 83.1389 50.3152 83.8824 49.5706C85.3692 48.0783 85.3692 45.6717 83.88 44.1824ZM39.4405 76.0168C38.5589 76.7912 37.3913 77.375 36.0927 77.375C35.3046 77.375 33.8016 77.1646 32.5852 75.7487C31.0542 73.9723 31.383 70.9545 33.3128 69.0244L65.6475 36.7373L72.2217 43.3044L39.4405 76.0168Z" fill="#FCBA19"/>
</svg>
